<svg width="63" height="24" viewBox="0 0 63 24" fill="none" xmlns="http://www.w3.org/2000/svg">
<circle cx="53" cy="14" r="10" fill="#FEF2E8"/>
<path d="M1.152 4.128H3.648V16H1.152V4.128ZM5.9645 7.392H8.4605V16H5.9645V7.392ZM7.2125 6.192C6.75383 6.192 6.3805 6.05867 6.0925 5.792C5.8045 5.52533 5.6605 5.19467 5.6605 4.8C5.6605 4.40533 5.8045 4.07467 6.0925 3.808C6.3805 3.54133 6.75383 3.408 7.2125 3.408C7.67117 3.408 8.0445 3.536 8.3325 3.792C8.6205 4.048 8.7645 4.368 8.7645 4.752C8.7645 5.168 8.6205 5.51467 8.3325 5.792C8.0445 6.05867 7.67117 6.192 7.2125 6.192ZM16.009 7.264C17.0757 7.264 17.9343 7.584 18.585 8.224C19.2463 8.864 19.577 9.81333 19.577 11.072V16H17.081V11.456C17.081 10.7733 16.9317 10.2667 16.633 9.936C16.3343 9.59467 15.9023 9.424 15.337 9.424C14.7077 9.424 14.2063 9.62133 13.833 10.016C13.4597 10.4 13.273 10.976 13.273 11.744V16H10.777V7.392H13.161V8.4C13.4917 8.03733 13.9023 7.76 14.393 7.568C14.8837 7.36533 15.4223 7.264 16.009 7.264ZM25.5355 12.624L24.3355 13.808V16H21.8395V4.128H24.3355V10.848L27.9835 7.392H30.9595L27.3755 11.04L31.2795 16H28.2555L25.5355 12.624Z" fill="#083038"/>
<path d="M35.138 7.584H37.346V9.504H35.202V16H32.706V9.504H31.378V7.584H32.706V7.2C32.706 6.21867 32.994 5.44 33.57 4.864C34.1567 4.288 34.978 4 36.034 4C36.4073 4 36.7593 4.04267 37.09 4.128C37.4313 4.20267 37.714 4.31467 37.938 4.464L37.282 6.272C36.994 6.06933 36.658 5.968 36.274 5.968C35.5167 5.968 35.138 6.384 35.138 7.216V7.584ZM47.2898 7.392L43.4018 16.528C43.0071 17.52 42.5164 18.2187 41.9298 18.624C41.3538 19.0293 40.6551 19.232 39.8338 19.232C39.3858 19.232 38.9431 19.1627 38.5058 19.024C38.0684 18.8853 37.7111 18.6933 37.4337 18.448L38.3458 16.672C38.5378 16.8427 38.7564 16.976 39.0018 17.072C39.2578 17.168 39.5084 17.216 39.7538 17.216C40.0951 17.216 40.3724 17.1307 40.5858 16.96C40.7991 16.8 40.9911 16.528 41.1618 16.144L41.1938 16.064L37.4657 7.392H40.0418L42.4578 13.232L44.8898 7.392H47.2898Z" fill="black"/>
</svg>
